<?xml version="1.0" standalone="no"?>
<!DOCTYPE svg PUBLIC "-//W3C//DTD SVG 20010904//EN"
 "http://www.w3.org/TR/2001/REC-SVG-20010904/DTD/svg10.dtd">
<svg version="1.0" xmlns="http://www.w3.org/2000/svg"
 width="3840.000000pt" height="2400.000000pt" viewBox="0 0 3840.000000 2400.000000"
 preserveAspectRatio="xMidYMid meet">

<g transform="translate(0.000000,2400.000000) scale(0.100000,-0.100000)"
fill="#000000" stroke="none">
<path d="M0 12000 l0 -12000 19200 0 19200 0 0 12000 0 12000 -19200 0 -19200
0 0 -12000z m5300 2010 c0 -6 33 -10 80 -10 47 0 80 -4 80 -10 0 -5 23 -10 50
-10 28 0 50 -4 50 -10 0 -5 18 -10 40 -10 22 0 40 -4 40 -10 0 -5 14 -10 30
-10 17 0 30 -4 30 -10 0 -5 14 -10 30 -10 17 0 30 -4 30 -10 0 -5 9 -10 20
-10 11 0 20 -4 20 -10 0 -5 14 -10 30 -10 17 0 30 -4 30 -10 0 -5 9 -10 20
-10 11 0 20 -4 20 -10 0 -5 9 -10 20 -10 11 0 20 -4 20 -10 0 -5 9 -10 20 -10
11 0 20 -4 20 -10 0 -5 8 -10 18 -10 10 0 24 -9 32 -20 8 -11 21 -20 30 -20 9
0 22 -9 30 -20 8 -11 21 -20 30 -20 9 0 22 -9 30 -20 8 -11 21 -20 28 -20 7 0
31 -18 52 -40 21 -22 43 -40 49 -40 15 0 181 -166 181 -181 0 -6 18 -28 40
-49 22 -21 40 -45 40 -52 0 -7 9 -20 20 -28 11 -8 20 -21 20 -30 0 -9 9 -22
20 -30 11 -8 20 -22 20 -31 0 -10 6 -19 12 -21 17 -6 -14 -38 -36 -38 -9 0
-16 -4 -16 -10 0 -5 -13 -10 -30 -10 -16 0 -30 -4 -30 -10 0 -5 -15 -10 -32
-10 -25 0 -29 -3 -18 -10 11 -7 7 -10 -17 -10 -18 0 -33 -4 -33 -10 0 -5 -9
-10 -20 -10 -11 0 -20 -4 -20 -10 0 -5 -13 -10 -30 -10 -16 0 -30 -4 -30 -10
0 -5 -9 -10 -20 -10 -11 0 -20 -4 -20 -10 0 -5 -13 -10 -30 -10 -16 0 -30 -4
-30 -10 0 -5 -9 -10 -20 -10 -11 0 -20 -4 -20 -10 0 -5 -13 -10 -30 -10 -16 0
-30 -4 -30 -10 0 -5 -9 -10 -20 -10 -11 0 -20 -4 -20 -10 0 -5 -13 -10 -30
-10 -16 0 -30 -4 -30 -10 0 -5 -9 -10 -20 -10 -11 0 -20 -4 -20 -10 0 -5 -13
-10 -30 -10 -16 0 -30 -4 -30 -10 0 -5 -9 -10 -20 -10 -11 0 -20 -4 -20 -10 0
-5 -13 -10 -30 -10 -16 0 -30 -4 -30 -10 0 -5 -9 -10 -20 -10 -11 0 -20 -4
-20 -10 0 -5 -15 -10 -32 -10 -25 0 -29 -3 -18 -10 11 -7 7 -10 -17 -10 -18 0
-33 -4 -33 -10 0 -5 -13 -10 -30 -10 -16 0 -30 -4 -30 -10 0 -5 -9 -10 -20
-10 -11 0 -20 -4 -20 -10 0 -5 -13 -10 -30 -10 -16 0 -30 -4 -30 -10 0 -5 -9
-10 -20 -10 -11 0 -20 -4 -20 -10 0 -5 -13 -10 -30 -10 -16 0 -30 -4 -30 -10
0 -5 -9 -10 -20 -10 -11 0 -20 -4 -20 -10 0 -5 -13 -10 -30 -10 -16 0 -30 -4
-30 -10 0 -5 -9 -10 -20 -10 -11 0 -20 -4 -20 -10 0 -5 -13 -10 -30 -10 -16 0
-30 -4 -30 -10 0 -5 -9 -10 -20 -10 -11 0 -20 -4 -20 -10 0 -5 -15 -10 -32
-10 -25 0 -29 -3 -18 -10 11 -7 7 -10 -17 -10 -18 0 -33 -4 -33 -10 0 -5 -13
-10 -30 -10 -16 0 -30 -4 -30 -10 0 -5 -9 -10 -20 -10 -11 0 -20 -4 -20 -10 0
-5 -13 -10 -30 -10 -16 0 -30 -4 -30 -10 0 -5 -9 -10 -20 -10 -11 0 -20 -4
-20 -10 0 -5 -15 -10 -32 -10 -25 0 -29 -3 -18 -10 11 -7 7 -10 -17 -10 -18 0
-33 -4 -33 -10 0 -5 -9 -10 -20 -10 -11 0 -20 -4 -20 -10 0 -5 -13 -10 -30
-10 -16 0 -30 -4 -30 -10 0 -5 -15 -10 -32 -10 -25 0 -29 -3 -18 -10 12 -8 9
-10 -13 -10 -29 0 -57 -20 -57 -40 0 -17 26 -40 44 -40 9 0 16 -4 16 -10 0 -5
14 -10 30 -10 17 0 30 -4 30 -10 0 -5 14 -10 30 -10 17 0 30 -4 30 -10 0 -5 9
-10 20 -10 11 0 20 -4 20 -10 0 -5 15 -10 33 -10 24 0 28 -3 17 -10 -11 -7 -7
-10 18 -10 17 0 32 -4 32 -10 0 -5 9 -10 20 -10 11 0 20 -4 20 -10 0 -5 14
-10 30 -10 17 0 30 -4 30 -10 0 -5 9 -10 20 -10 11 0 20 -4 20 -10 0 -5 14
-10 30 -10 17 0 30 -4 30 -10 0 -5 14 -10 30 -10 17 0 30 -4 30 -10 0 -5 9
-10 20 -10 11 0 20 -4 20 -10 0 -5 14 -10 30 -10 17 0 30 -4 30 -10 0 -5 9
-10 20 -10 11 0 20 -4 20 -10 0 -5 9 -10 20 -10 11 0 20 -4 20 -10 0 -5 14
-10 30 -10 17 0 30 -4 30 -10 0 -5 14 -10 30 -10 17 0 30 -4 30 -10 0 -5 9
-10 20 -10 11 0 20 -4 20 -10 0 -5 14 -10 30 -10 17 0 30 -4 30 -10 0 -5 9
-10 20 -10 11 0 20 -4 20 -10 0 -5 14 -10 30 -10 17 0 30 -4 30 -10 0 -5 9
-10 20 -10 11 0 20 -4 20 -10 0 -5 14 -10 30 -10 17 0 30 -4 30 -10 0 -5 9
-10 20 -10 11 0 20 -4 20 -10 0 -5 14 -10 30 -10 17 0 30 -4 30 -10 0 -5 9
-10 20 -10 11 0 20 -4 20 -10 0 -5 14 -10 30 -10 17 0 30 -4 30 -10 0 -5 9
-10 20 -10 11 0 20 -4 20 -10 0 -5 14 -10 30 -10 17 0 30 -4 30 -10 0 -5 9
-10 20 -10 11 0 20 -4 20 -10 0 -5 14 -10 30 -10 17 0 30 -4 30 -10 0 -5 9
-10 20 -10 11 0 20 -4 20 -10 0 -5 14 -10 30 -10 17 0 30 -4 30 -10 0 -5 9
-10 20 -10 11 0 20 -4 20 -10 0 -5 14 -10 30 -10 17 0 30 -4 30 -10 0 -5 9
-10 20 -10 11 0 20 -4 20 -10 0 -5 14 -10 30 -10 17 0 30 -4 30 -10 0 -5 9
-10 20 -10 11 0 20 -4 20 -10 0 -5 14 -10 30 -10 17 0 30 -4 30 -10 0 -5 9
-10 20 -10 11 0 20 -4 20 -10 0 -5 14 -10 30 -10 23 0 30 -4 30 -20 0 -11 -4
-20 -10 -20 -5 0 -10 -9 -10 -20 0 -11 -4 -20 -10 -20 -5 0 -10 -7 -10 -16 0
-9 -13 -29 -30 -44 -16 -15 -30 -33 -30 -40 0 -7 -13 -25 -30 -40 -16 -15 -30
-36 -30 -47 0 -15 -2 -16 -10 -3 -8 13 -10 12 -10 -3 0 -23 -164 -187 -187
-187 -15 0 -16 -2 -3 -10 13 -8 12 -10 -3 -10 -11 0 -32 -13 -47 -30 -15 -16
-33 -30 -40 -30 -7 0 -25 -13 -40 -30 -15 -16 -35 -30 -44 -30 -9 0 -16 -4
-16 -10 0 -5 -10 -10 -22 -10 -19 0 -20 -2 -8 -10 12 -8 11 -10 -7 -10 -13 0
-23 -4 -23 -10 0 -5 -9 -10 -20 -10 -11 0 -20 -4 -20 -10 0 -5 -9 -10 -20 -10
-11 0 -20 -4 -20 -10 0 -5 -9 -10 -20 -10 -11 0 -20 -4 -20 -10 0 -5 -9 -10
-20 -10 -11 0 -20 -4 -20 -10 0 -5 -9 -10 -20 -10 -11 0 -20 -4 -20 -10 0 -5
-13 -10 -30 -10 -16 0 -30 -4 -30 -10 0 -5 -13 -10 -30 -10 -16 0 -30 -4 -30
-10 0 -5 -13 -10 -30 -10 -16 0 -30 -4 -30 -10 0 -5 -18 -10 -40 -10 -22 0
-40 -4 -40 -10 0 -5 -18 -10 -40 -10 -22 0 -40 -4 -40 -10 0 -6 -34 -10 -82
-10 -57 0 -78 -3 -68 -10 10 -6 -47 -10 -170 -10 -123 0 -180 4 -170 10 10 7
-11 10 -70 10 -59 0 -80 3 -70 10 11 7 0 10 -37 10 -29 0 -53 5 -53 10 0 6
-18 10 -40 10 -22 0 -40 5 -40 10 0 6 -13 10 -30 10 -16 0 -30 5 -30 10 0 6
-13 10 -30 10 -16 0 -30 5 -30 10 0 6 -9 10 -20 10 -11 0 -20 5 -20 10 0 6
-13 10 -30 10 -16 0 -30 5 -30 10 0 6 -9 10 -20 10 -11 0 -20 5 -20 10 0 6 -9
10 -20 10 -11 0 -20 5 -20 10 0 6 -9 10 -20 10 -11 0 -20 5 -20 10 0 6 -8 10
-18 10 -10 0 -24 9 -32 20 -8 11 -21 20 -30 20 -9 0 -22 9 -30 20 -8 11 -21
20 -30 20 -9 0 -22 9 -30 20 -8 11 -20 20 -28 20 -7 0 -35 23 -62 50 -27 28
-54 50 -60 50 -14 0 -120 106 -120 120 0 6 -22 33 -50 60 -27 27 -50 54 -50
60 0 7 -13 25 -30 40 -16 15 -30 34 -30 42 0 7 -9 20 -20 28 -11 8 -20 22 -20
32 0 10 -4 18 -10 18 -5 0 -10 9 -10 20 0 11 -4 20 -10 20 -5 0 -10 9 -10 20
0 11 -4 20 -10 20 -5 0 -10 10 -10 23 0 18 -2 19 -10 7 -7 -11 -10 -7 -10 18
0 17 -4 32 -10 32 -5 0 -10 9 -10 20 0 11 -4 20 -10 20 -5 0 -10 9 -10 20 0
11 -4 20 -10 20 -5 0 -10 14 -10 30 0 17 -4 30 -10 30 -5 0 -10 14 -10 30 0
17 -4 30 -10 30 -5 0 -10 14 -10 30 0 17 -4 30 -10 30 -5 0 -10 23 -10 50 0
28 -4 50 -10 50 -5 0 -10 23 -10 50 0 28 -4 50 -10 50 -6 0 -10 93 -10 260 0
167 4 260 10 260 6 0 10 23 10 50 0 28 5 50 10 50 6 0 10 23 10 50 0 28 5 50
10 50 6 0 10 14 10 30 0 17 5 30 10 30 6 0 10 14 10 30 0 17 5 30 10 30 6 0
10 14 10 30 0 17 5 30 10 30 6 0 10 9 10 20 0 11 5 20 10 20 6 0 10 9 10 20 0
11 5 20 10 20 6 0 10 9 10 20 0 11 5 20 10 20 6 0 10 9 10 20 0 11 5 20 10 20
6 0 10 9 10 20 0 11 5 20 10 20 6 0 10 9 10 20 0 11 5 20 10 20 6 0 10 8 10
18 0 10 9 24 20 32 11 8 20 21 20 28 0 8 14 27 30 42 17 15 30 33 30 40 0 6
23 33 50 60 28 27 50 54 50 60 0 14 86 100 100 100 6 0 38 27 70 60 32 33 65
60 72 60 8 0 20 9 28 20 8 11 21 20 30 20 9 0 22 9 30 20 8 11 21 20 30 20 9
0 22 9 30 20 8 11 22 20 32 20 10 0 18 5 18 10 0 6 9 10 20 10 11 0 20 5 20
10 0 6 9 10 20 10 11 0 20 5 20 10 0 6 15 10 33 10 24 0 28 3 17 10 -11 7 -7
10 18 10 17 0 32 5 32 10 0 6 15 10 33 10 24 0 28 3 17 10 -11 7 -7 10 18 10
17 0 32 5 32 10 0 6 14 10 30 10 17 0 30 5 30 10 0 6 24 10 53 10 37 0 48 3
37 10 -11 7 0 10 38 10 28 0 52 5 52 10 0 6 33 10 80 10 47 0 80 4 80 10 0 6
53 10 140 10 87 0 140 -4 140 -10z m37 4 c-3 -3 -12 -4 -19 -1 -8 3 -5 6 6 6
11 1 17 -2 13 -5z m16123 -4 c0 -5 23 -10 50 -10 28 0 50 -4 50 -10 0 -5 18
-10 40 -10 22 0 40 -4 40 -10 0 -5 14 -10 30 -10 17 0 30 -4 30 -10 0 -5 9
-10 20 -10 11 0 20 -4 20 -10 0 -5 14 -10 30 -10 17 0 30 -4 30 -10 0 -5 8
-10 18 -10 10 0 24 -9 32 -20 8 -11 22 -20 32 -20 10 0 18 -4 18 -10 0 -5 7
-10 16 -10 9 0 29 -13 44 -30 15 -16 33 -30 39 -30 15 0 221 -206 221 -221 0
-6 14 -24 30 -39 17 -15 30 -35 30 -44 0 -9 5 -16 10 -16 6 0 10 -8 10 -18 0
-10 9 -24 20 -32 12 -8 20 -26 20 -42 0 -15 5 -28 10 -28 6 0 10 -9 10 -20 0
-11 5 -20 10 -20 6 0 10 -9 10 -20 0 -11 5 -20 10 -20 6 0 10 -18 10 -40 0
-22 5 -40 10 -40 6 0 10 -13 10 -30 0 -16 5 -30 10 -30 6 0 10 -27 10 -60 0
-33 4 -60 10 -60 6 0 10 -62 10 -166 0 -107 3 -163 10 -159 6 4 10 -43 10
-134 0 -87 4 -141 10 -141 6 0 10 -53 10 -140 0 -87 4 -140 10 -140 6 0 10
-57 10 -150 0 -93 4 -150 10 -150 6 0 10 -51 10 -134 0 -79 4 -137 10 -141 6
-4 10 -67 10 -156 0 -93 4 -149 10 -149 6 0 10 -50 10 -130 0 -80 4 -130 10
-130 6 0 10 -33 10 -80 0 -47 -4 -80 -10 -80 -5 0 -10 -13 -10 -30 0 -16 -4
-30 -10 -30 -5 0 -10 -9 -10 -20 0 -11 -4 -20 -10 -20 -5 0 -10 -7 -10 -15 0
-19 -44 -65 -62 -65 -8 0 -20 -9 -28 -20 -8 -12 -26 -20 -42 -20 -15 0 -28 -4
-28 -10 0 -6 -26 -10 -59 -10 -33 0 -63 5 -66 10 -3 6 -21 10 -38 10 -21 0
-38 7 -47 20 -8 11 -20 20 -27 20 -7 0 -135 122 -283 270 -148 149 -274 270
-280 270 -14 0 -100 -86 -100 -100 0 -6 -63 -73 -140 -150 -77 -77 -140 -143
-140 -147 0 -5 -9 -14 -20 -21 -11 -7 -20 -17 -20 -22 0 -15 -87 -100 -103
-100 -7 0 -19 -9 -27 -20 -8 -12 -26 -20 -42 -20 -15 0 -28 -4 -28 -10 0 -6
-33 -10 -80 -10 -47 0 -80 4 -80 10 0 6 -13 10 -28 10 -16 0 -34 8 -42 20 -8
11 -20 20 -27 20 -17 0 -94 77 -112 113 -8 15 -21 27 -28 27 -7 0 -17 8 -20
17 -4 9 -78 88 -165 175 -87 87 -158 162 -158 168 0 15 -25 40 -39 40 -6 0
-133 -121 -281 -270 -148 -148 -277 -270 -285 -270 -8 0 -15 -4 -15 -10 0 -5
-9 -10 -20 -10 -11 0 -20 -4 -20 -10 0 -5 -13 -10 -30 -10 -16 0 -30 -4 -30
-10 0 -6 -27 -10 -60 -10 -33 0 -60 4 -60 10 0 6 -13 10 -28 10 -16 0 -34 8
-42 20 -8 11 -20 20 -28 20 -18 0 -82 66 -82 85 0 8 -4 15 -10 15 -5 0 -10 14
-10 30 0 17 -4 30 -10 30 -6 0 -10 40 -10 100 0 60 4 100 10 100 6 0 10 63 10
170 0 107 4 170 10 170 6 0 10 50 10 130 0 80 4 130 10 130 6 0 10 50 10 130
0 80 4 130 10 130 6 0 10 57 10 150 0 93 4 150 10 150 6 0 10 53 10 140 0 87
4 140 10 140 6 0 10 53 10 140 0 87 4 140 10 140 6 0 10 57 10 150 0 93 4 150
10 150 6 0 10 23 10 50 0 28 5 50 10 50 6 0 10 18 10 40 0 22 5 40 10 40 6 0
10 14 10 30 0 17 5 30 10 30 6 0 10 9 10 20 0 11 5 20 10 20 6 0 10 14 10 30
0 17 5 30 10 30 6 0 10 9 10 20 0 11 5 20 10 20 6 0 10 8 10 18 0 10 9 24 20
32 11 8 20 21 20 30 0 9 9 22 20 30 11 8 20 20 20 27 0 7 56 69 125 138 69 69
131 125 138 125 7 0 19 9 27 20 8 11 21 20 30 20 9 0 22 9 30 20 8 11 22 20
32 20 10 0 18 5 18 10 0 6 9 10 20 10 11 0 20 5 20 10 0 6 14 10 30 10 17 0
30 5 30 10 0 6 9 10 20 10 11 0 20 5 20 10 0 6 14 10 30 10 17 0 30 5 30 10 0
6 18 10 40 10 22 0 40 5 40 10 0 6 23 10 50 10 28 0 50 5 50 10 0 7 200 10
580 10 380 0 580 -3 580 -10z m4160 0 c0 -5 18 -10 40 -10 22 0 40 -4 40 -10
0 -5 18 -10 41 -10 24 0 38 -4 34 -10 -4 -6 8 -10 29 -10 20 0 36 -4 36 -10 0
-5 9 -10 20 -10 11 0 20 -4 20 -10 0 -5 9 -10 20 -10 11 0 20 -4 20 -10 0 -5
9 -10 20 -10 11 0 20 -4 20 -10 0 -5 9 -10 20 -10 11 0 20 -4 20 -10 0 -5 8
-10 18 -10 10 0 24 -9 32 -20 8 -11 21 -20 28 -20 8 0 27 -13 42 -30 15 -16
33 -30 40 -30 17 0 131 -120 124 -131 -3 -5 -2 -9 3 -8 21 4 33 -2 33 -17 0
-9 14 -29 30 -44 17 -15 30 -34 30 -42 0 -7 9 -20 20 -28 11 -8 20 -22 20 -32
0 -10 5 -18 10 -18 6 0 10 -9 10 -20 0 -11 5 -20 10 -20 6 0 10 -9 10 -20 0
-11 5 -20 10 -20 6 0 10 -9 10 -20 0 -11 5 -20 10 -20 6 0 10 -9 10 -20 0 -11
5 -20 10 -20 6 0 10 -13 10 -30 0 -16 5 -30 10 -30 6 0 10 -18 10 -40 0 -22 5
-40 10 -40 6 0 10 -18 10 -40 0 -22 5 -40 10 -40 6 0 10 -60 10 -160 0 -100 4
-160 10 -160 6 0 10 -47 10 -120 0 -73 4 -120 10 -120 6 0 10 -53 10 -140 0
-87 4 -140 10 -140 6 0 10 -60 10 -160 0 -100 4 -160 10 -160 6 0 10 -50 10
-130 0 -80 4 -130 10 -130 6 0 10 -50 10 -130 0 -80 4 -130 10 -130 6 0 10
-60 10 -160 0 -100 4 -160 10 -160 6 0 10 -50 10 -130 0 -80 -4 -130 -10 -130
-5 0 -10 -13 -10 -30 0 -16 -4 -30 -10 -30 -5 0 -10 -7 -10 -15 0 -20 -85
-105 -105 -105 -8 0 -15 -4 -15 -10 0 -5 -9 -10 -20 -10 -11 0 -20 -4 -20 -10
0 -6 -33 -10 -80 -10 -47 0 -80 4 -80 10 0 6 -13 10 -28 10 -16 0 -34 8 -42
20 -8 11 -20 20 -27 20 -7 0 -135 122 -283 270 l-270 270 -125 -125 c-69 -69
-125 -129 -125 -135 0 -6 -70 -80 -155 -165 -117 -118 -161 -155 -180 -155
-14 0 -25 -4 -25 -10 0 -6 -40 -10 -100 -10 -60 0 -100 4 -100 10 0 6 -9 10
-20 10 -11 0 -20 5 -20 10 0 6 -7 10 -15 10 -18 0 -245 224 -245 242 0 6 -3 9
-6 5 -8 -7 -34 18 -34 32 0 6 -61 72 -135 146 l-135 135 -270 -270 c-148 -148
-276 -270 -283 -270 -7 0 -19 -9 -27 -20 -8 -12 -26 -20 -42 -20 -15 0 -28 -4
-28 -10 0 -6 -33 -10 -80 -10 -47 0 -80 4 -80 10 0 6 -9 10 -20 10 -11 0 -20
5 -20 10 0 6 -7 10 -15 10 -20 0 -105 85 -105 105 0 8 -4 15 -10 15 -5 0 -10
14 -10 30 0 17 -4 30 -10 30 -6 0 -10 47 -10 120 0 73 4 120 10 120 6 0 10 47
10 120 0 73 4 120 10 120 6 0 10 63 10 170 0 107 4 170 10 170 6 0 10 50 10
130 0 80 4 130 10 130 6 0 10 57 10 150 0 93 4 150 10 150 6 0 10 53 10 140 0
87 4 140 10 140 6 0 10 50 10 130 0 80 4 130 10 130 6 0 10 60 10 160 0 100 4
160 10 160 6 0 10 23 10 50 0 28 5 50 10 50 6 0 10 14 10 30 0 17 5 30 10 30
6 0 10 14 10 30 0 17 5 30 10 30 6 0 10 14 10 30 0 17 5 30 10 30 6 0 10 9 10
20 0 11 5 20 10 20 6 0 10 9 10 20 0 11 5 20 10 20 6 0 10 8 10 18 0 10 9 24
20 32 11 8 20 21 20 30 0 9 9 22 20 30 11 8 20 21 20 28 0 7 18 31 40 52 22
21 40 43 40 50 0 14 66 80 80 80 7 0 29 18 50 40 21 22 45 40 52 40 7 0 20 9
28 20 8 11 21 20 30 20 9 0 22 9 30 20 8 11 22 20 32 20 10 0 18 5 18 10 0 6
9 10 20 10 11 0 20 5 20 10 0 6 9 10 20 10 11 0 20 5 20 10 0 6 14 10 30 10
17 0 30 5 30 10 0 6 14 10 30 10 17 0 30 5 30 10 0 6 14 10 30 10 17 0 30 5
30 10 0 6 23 10 50 10 28 0 50 5 50 10 0 7 210 10 610 10 400 0 610 -3 610
-10z m4050 0 c-10 -7 7 -10 58 -10 41 0 72 -4 72 -10 0 -5 14 -10 30 -10 17 0
30 -4 30 -10 0 -5 18 -10 40 -10 22 0 40 -4 40 -10 0 -5 9 -10 20 -10 11 0 20
-4 20 -10 0 -5 9 -10 20 -10 11 0 20 -4 20 -10 0 -5 14 -10 30 -10 17 0 30 -4
30 -10 0 -5 10 -10 23 -10 18 0 19 -2 7 -10 -12 -8 -11 -10 8 -10 12 0 22 -4
22 -10 0 -5 8 -10 18 -10 10 0 24 -9 32 -20 8 -11 20 -20 27 -20 7 0 69 -56
138 -125 69 -69 125 -131 125 -138 0 -7 9 -19 20 -27 11 -8 20 -21 20 -30 0
-9 9 -22 20 -30 11 -8 20 -22 20 -32 0 -10 5 -18 10 -18 6 0 10 -9 10 -20 0
-11 5 -20 10 -20 6 0 10 -13 10 -28 0 -16 8 -34 20 -42 14 -10 20 -26 20 -52
0 -21 5 -38 10 -38 6 0 10 -18 10 -40 0 -22 5 -40 10 -40 6 0 10 -18 10 -40 0
-22 5 -40 10 -40 6 0 10 -68 10 -182 0 -122 4 -178 10 -168 7 10 10 -25 10
-107 0 -75 4 -123 10 -123 6 0 10 -50 10 -131 0 -84 4 -128 10 -124 7 4 10
-59 10 -182 0 -125 4 -183 10 -173 7 10 10 -29 10 -120 0 -91 3 -130 10 -120
7 10 10 -28 10 -117 0 -82 4 -133 10 -133 6 0 10 -67 10 -180 0 -113 4 -180
10 -180 6 0 10 -40 10 -100 0 -60 -4 -100 -10 -100 -5 0 -10 -13 -10 -30 0
-16 -4 -30 -10 -30 -5 0 -10 -7 -10 -15 0 -19 -64 -85 -82 -85 -8 0 -20 -9
-28 -20 -10 -14 -26 -20 -52 -20 -21 0 -38 -4 -38 -10 0 -5 -18 -10 -40 -10
-22 0 -40 5 -40 10 0 6 -18 10 -40 10 -22 0 -40 5 -40 10 0 6 -7 10 -15 10 -8
0 -141 126 -295 280 -154 154 -284 280 -290 280 -16 0 -320 -308 -320 -325 0
-8 -9 -15 -20 -15 -11 0 -20 -7 -20 -15 0 -20 -185 -205 -205 -205 -8 0 -15
-4 -15 -10 0 -5 -13 -10 -30 -10 -16 0 -30 -4 -30 -10 0 -6 -33 -10 -80 -10
-47 0 -80 4 -80 10 0 6 -12 10 -26 10 -16 0 -37 12 -55 31 -16 17 -29 26 -29
19 0 -7 -5 -6 -15 4 -8 8 -15 19 -15 25 0 7 -77 88 -170 181 -94 94 -166 170
-160 170 7 0 6 6 -2 14 -7 8 -15 14 -18 14 -21 -1 -30 4 -30 17 0 17 -84 105
-100 105 -6 0 -132 -121 -280 -270 -148 -148 -276 -270 -283 -270 -7 0 -19 -9
-27 -20 -10 -14 -26 -20 -52 -20 -21 0 -38 -4 -38 -10 0 -5 -22 -10 -50 -10
-27 0 -50 5 -50 10 0 6 -16 10 -36 10 -27 0 -43 7 -64 30 -15 17 -35 30 -44
30 -9 0 -16 8 -16 18 0 10 -9 24 -20 32 -11 8 -20 22 -20 32 0 10 -4 18 -10
18 -5 0 -10 14 -10 30 0 17 -4 30 -10 30 -6 0 -10 31 -10 73 0 50 3 67 10 57
7 -10 10 28 10 118 0 81 4 132 10 132 6 0 10 51 10 133 0 89 3 127 10 117 6
-10 10 50 10 178 0 121 4 192 10 192 6 0 10 43 10 110 0 67 4 110 10 110 6 0
10 54 10 143 0 95 3 137 10 127 6 -10 10 47 10 170 0 123 4 180 10 170 6 -10
10 37 10 143 0 103 3 156 10 152 6 -4 10 24 10 77 0 57 3 78 10 68 7 -11 10 0
10 38 0 28 5 52 10 52 6 0 10 14 10 30 0 17 5 30 10 30 6 0 10 14 10 30 0 17
5 30 10 30 6 0 10 9 10 20 0 11 5 20 10 20 6 0 10 9 10 20 0 11 5 20 10 20 6
0 10 9 10 20 0 11 5 20 10 20 6 0 10 8 10 18 0 10 9 24 20 32 11 8 20 21 20
28 0 8 14 27 30 42 17 15 30 33 30 39 0 15 186 201 201 201 6 0 24 14 39 30
15 17 35 30 44 30 9 0 16 5 16 10 0 6 9 10 20 10 11 0 20 5 20 10 0 6 10 10
23 10 18 0 19 2 7 10 -11 7 -7 10 18 10 17 0 32 5 32 10 0 6 9 10 20 10 11 0
20 5 20 10 0 6 9 10 20 10 11 0 20 5 20 10 0 6 18 10 40 10 22 0 40 5 40 10 0
6 14 10 30 10 17 0 30 5 30 10 0 6 30 10 70 10 40 0 70 4 70 10 0 7 191 10
553 10 360 0 547 -4 537 -10z m2670 -760 c0 -5 18 -10 40 -10 22 0 40 -4 40
-10 0 -5 15 -10 34 -10 19 0 38 -4 41 -10 3 -5 14 -10 23 -10 10 0 24 -9 32
-20 8 -11 20 -20 27 -20 17 0 143 -126 143 -143 0 -7 9 -19 20 -27 11 -8 20
-22 20 -32 0 -10 5 -18 10 -18 6 0 10 -13 10 -30 0 -16 5 -30 10 -30 6 0 10
-18 10 -40 0 -22 5 -40 10 -40 6 0 10 -37 10 -90 0 -53 -4 -90 -10 -90 -5 0
-10 -18 -10 -40 0 -22 -4 -40 -10 -40 -5 0 -10 -13 -10 -30 0 -16 -4 -30 -10
-30 -5 0 -10 -8 -10 -18 0 -10 -9 -24 -20 -32 -11 -8 -20 -20 -20 -27 0 -17
-106 -123 -123 -123 -7 0 -19 -9 -27 -20 -8 -11 -22 -20 -32 -20 -10 0 -18 -4
-18 -10 0 -5 -9 -10 -20 -10 -11 0 -20 -4 -20 -10 0 -5 -13 -10 -30 -10 -16 0
-30 -4 -30 -10 0 -6 -57 -10 -150 -10 -93 0 -150 4 -150 10 0 6 -9 10 -20 10
-11 0 -20 5 -20 10 0 6 -13 10 -28 10 -16 0 -34 8 -42 20 -8 11 -20 20 -27 20
-19 0 -163 146 -163 165 0 8 -4 15 -10 15 -5 0 -10 9 -10 20 0 11 -4 20 -10
20 -5 0 -10 9 -10 20 0 11 -4 20 -10 20 -5 0 -10 14 -10 30 0 17 -4 30 -10 30
-5 0 -10 14 -10 30 0 17 5 30 10 30 6 0 10 -9 10 -20 0 -11 5 -20 10 -20 6 0
10 -8 10 -18 0 -10 9 -24 20 -32 11 -8 20 -22 20 -32 0 -11 7 -18 18 -18 10 0
24 -9 32 -20 8 -11 22 -20 32 -20 10 0 18 -4 18 -10 0 -6 37 -10 90 -10 53 0
90 4 90 10 0 6 8 10 18 10 10 0 24 9 32 20 8 11 20 20 28 20 17 0 42 25 42 42
0 8 9 20 20 28 14 10 20 26 20 55 0 29 3 36 10 25 7 -11 10 0 10 38 0 28 -4
52 -10 52 -5 0 -10 14 -10 30 0 17 -4 30 -10 30 -5 0 -10 8 -10 18 0 10 -9 24
-20 32 -11 8 -20 22 -20 32 0 11 -7 18 -18 18 -10 0 -24 9 -32 20 -8 12 -26
20 -42 20 -15 0 -28 5 -28 10 0 6 -30 10 -70 10 -40 0 -70 -4 -70 -10 0 -5
-11 -10 -25 -10 -28 0 -135 -99 -135 -125 0 -8 -4 -15 -10 -15 -5 0 -10 -13
-10 -30 0 -51 -16 -33 -19 20 -1 30 2 50 9 50 5 0 10 14 10 30 0 17 5 30 10
30 6 0 10 13 10 28 0 16 8 34 20 42 11 8 20 21 20 28 0 8 14 27 30 42 17 15
30 35 30 44 0 9 7 16 16 16 8 0 33 18 54 40 21 22 46 40 54 40 9 0 16 5 16 10
0 6 9 10 20 10 11 0 20 5 20 10 0 6 14 10 30 10 17 0 30 5 30 10 0 6 18 10 40
10 22 0 40 5 40 10 0 6 30 10 70 10 40 0 70 -4 70 -10z m1320 0 c0 -5 23 -10
50 -10 28 0 50 -4 50 -10 0 -5 14 -10 30 -10 17 0 30 -4 30 -10 0 -5 8 -10 18
-10 10 0 24 -9 32 -20 8 -11 20 -20 27 -20 19 0 163 -146 163 -165 0 -8 5 -15
10 -15 6 0 10 -9 10 -20 0 -11 5 -20 10 -20 6 0 10 -9 10 -20 0 -11 5 -20 10
-20 6 0 10 -13 10 -30 0 -16 5 -30 10 -30 6 0 10 -50 10 -130 0 -80 -4 -130
-10 -130 -5 0 -10 -13 -10 -30 0 -16 -4 -30 -10 -30 -5 0 -10 -9 -10 -20 0
-11 -4 -20 -10 -20 -5 0 -10 -9 -10 -20 0 -11 -4 -20 -10 -20 -5 0 -10 -7 -10
-15 0 -17 -144 -165 -160 -165 -6 0 -20 -9 -32 -20 -12 -11 -32 -20 -45 -20
-13 0 -23 -4 -23 -10 0 -5 -9 -10 -20 -10 -11 0 -20 -4 -20 -10 0 -6 -60 -10
-160 -10 -100 0 -160 4 -160 10 0 6 -9 10 -20 10 -11 0 -20 5 -20 10 0 6 -9
10 -20 10 -11 0 -20 5 -20 10 0 6 -9 10 -20 10 -11 0 -20 5 -20 10 0 6 -7 10
-15 10 -19 0 -145 124 -145 143 0 7 -9 19 -20 27 -11 8 -20 22 -20 32 0 10 -4
18 -10 18 -5 0 -10 14 -10 30 0 17 -4 30 -10 30 -5 0 -10 10 -10 23 0 13 -5
28 -12 35 -9 9 -9 15 0 24 9 9 12 8 12 -5 0 -9 5 -17 10 -17 6 0 10 -7 10 -15
0 -20 105 -125 125 -125 8 0 15 -4 15 -10 0 -6 37 -10 90 -10 53 0 90 4 90 10
0 6 9 10 20 10 11 0 20 5 20 10 0 6 7 10 15 10 9 0 31 16 50 35 19 19 35 41
35 50 0 8 5 15 10 15 6 0 10 9 10 20 0 11 5 20 10 20 6 0 10 30 10 70 0 40 -4
70 -10 70 -5 0 -10 13 -10 28 0 16 -8 34 -20 42 -11 8 -20 20 -20 28 0 17 -25
42 -42 42 -8 0 -20 9 -28 20 -9 12 -26 20 -45 20 -23 0 -27 3 -15 10 10 7 -11
10 -67 10 -49 0 -83 -4 -83 -10 0 -5 -9 -10 -20 -10 -11 0 -20 -4 -20 -10 0
-5 -7 -10 -15 -10 -26 0 -105 -86 -105 -115 0 -14 -4 -25 -10 -25 -5 0 -10 -9
-10 -20 0 -11 -5 -20 -10 -20 -7 0 -10 20 -9 49 2 28 6 48 11 45 4 -3 8 6 8
20 0 14 5 26 10 26 6 0 10 14 10 30 0 17 5 30 10 30 6 0 10 7 10 16 0 9 10 25
22 35 11 11 16 19 9 19 -6 0 22 34 64 75 41 41 81 75 88 75 7 0 19 9 27 20 8
11 22 20 32 20 10 0 18 5 18 10 0 6 14 10 30 10 17 0 30 5 30 10 0 6 23 10 50
10 28 0 50 5 50 10 0 6 27 10 60 10 33 0 60 -4 60 -10z m-24580 -950 l0 -240
-240 0 -240 0 0 240 0 240 240 0 240 0 0 -240z m2220 0 l0 -240 -250 0 -250 0
0 240 0 240 250 0 250 0 0 -240z m2200 0 l0 -240 -240 0 -240 0 0 240 0 240
240 0 240 0 0 -240z m2220 0 l0 -240 -250 0 -250 0 0 240 0 240 250 0 250 0 0
-240z m2200 0 l0 -240 -240 0 -240 0 0 240 0 240 240 0 240 0 0 -240z"/>
<path d="M19560 12950 c0 -5 -9 -10 -20 -10 -11 0 -20 -4 -20 -10 0 -5 -7 -10
-15 -10 -9 0 -31 -16 -50 -35 -19 -19 -35 -41 -35 -50 0 -8 -4 -15 -10 -15 -5
0 -10 -13 -10 -30 0 -16 -4 -30 -10 -30 -6 0 -10 -30 -10 -70 0 -40 4 -70 10
-70 6 0 10 -9 10 -20 0 -11 5 -20 10 -20 6 0 10 -7 10 -15 0 -19 64 -85 82
-85 8 0 20 -9 28 -20 13 -18 26 -20 112 -20 59 0 98 4 98 10 0 6 7 10 15 10
26 0 125 107 125 135 0 14 5 25 10 25 6 0 10 33 10 80 0 47 -4 80 -10 80 -5 0
-10 11 -10 25 0 29 -79 115 -105 115 -8 0 -15 5 -15 10 0 6 -9 10 -20 10 -11
0 -20 5 -20 10 0 6 -33 10 -80 10 -47 0 -80 -4 -80 -10z"/>
<path d="M20900 12950 c0 -5 -13 -10 -28 -10 -16 0 -34 -8 -42 -20 -8 -11 -22
-20 -32 -20 -11 0 -18 -7 -18 -18 0 -10 -9 -24 -20 -32 -11 -8 -20 -22 -20
-32 0 -10 -4 -18 -10 -18 -5 0 -10 -13 -10 -30 0 -16 -4 -30 -10 -30 -5 0 -10
-22 -10 -50 0 -27 5 -50 10 -50 6 0 10 -13 10 -28 0 -16 8 -34 20 -42 11 -8
20 -20 20 -28 0 -16 24 -42 40 -42 6 0 8 -4 5 -10 -3 -5 3 -10 14 -10 12 0 21
-4 21 -10 0 -5 9 -10 20 -10 11 0 20 -4 20 -10 0 -6 37 -10 90 -10 53 0 90 4
90 10 0 6 8 10 18 10 10 0 24 9 32 20 8 11 22 20 32 20 11 0 18 7 18 18 0 10
9 24 20 32 11 8 20 22 20 32 0 10 5 18 10 18 6 0 10 40 10 100 0 60 -4 100
-10 100 -5 0 -10 7 -10 15 0 26 -107 125 -135 125 -14 0 -25 5 -25 10 0 6 -30
10 -70 10 -40 0 -70 -4 -70 -10z"/>
<path d="M23700 12950 c0 -5 -13 -10 -28 -10 -16 0 -34 -8 -42 -20 -8 -11 -20
-20 -28 -20 -17 0 -42 -25 -42 -42 0 -8 -9 -20 -20 -28 -12 -8 -20 -26 -20
-42 0 -15 -4 -28 -10 -28 -6 0 -10 -27 -10 -60 0 -33 4 -60 10 -60 6 0 10 -13
10 -30 0 -16 5 -30 10 -30 6 0 10 -7 10 -15 0 -20 65 -85 85 -85 8 0 15 -4 15
-10 0 -5 9 -10 20 -10 11 0 20 -4 20 -10 0 -6 37 -10 90 -10 53 0 90 4 90 10
0 6 8 10 18 10 10 0 24 9 32 20 8 11 22 20 32 20 11 0 18 7 18 18 0 10 9 24
20 32 11 8 20 22 20 32 0 10 5 18 10 18 6 0 10 40 10 100 0 60 -4 100 -10 100
-5 0 -10 7 -10 15 0 20 -85 105 -105 105 -8 0 -15 5 -15 10 0 6 -9 10 -20 10
-11 0 -20 5 -20 10 0 6 -30 10 -70 10 -40 0 -70 -4 -70 -10z"/>
<path d="M25020 12950 c0 -5 -11 -10 -25 -10 -28 0 -135 -99 -135 -125 0 -8
-4 -15 -10 -15 -5 0 -10 -13 -10 -30 0 -16 -4 -30 -10 -30 -5 0 -10 -18 -10
-40 0 -22 5 -40 10 -40 6 0 10 -19 10 -42 0 -32 3 -39 10 -28 8 12 10 11 10
-7 0 -13 5 -23 10 -23 6 0 10 -7 10 -16 0 -19 24 -44 42 -44 8 0 20 -9 28 -20
8 -11 22 -20 32 -20 10 0 18 -4 18 -10 0 -6 37 -10 90 -10 53 0 90 4 90 10 0
6 8 10 18 10 10 0 24 9 32 20 8 11 20 20 28 20 17 0 42 25 42 42 0 8 9 20 20
28 14 10 20 26 20 52 0 21 5 38 10 38 6 0 10 18 10 40 0 22 -4 40 -10 40 -5 0
-10 14 -10 30 0 17 -4 30 -10 30 -5 0 -10 7 -10 15 0 26 -107 125 -135 125
-14 0 -25 5 -25 10 0 6 -30 10 -70 10 -40 0 -70 -4 -70 -10z"/>
<path d="M27820 12950 c0 -5 -13 -10 -28 -10 -16 0 -34 -8 -42 -20 -8 -11 -22
-20 -32 -20 -11 0 -18 -7 -18 -18 0 -10 -9 -24 -20 -32 -11 -8 -20 -22 -20
-32 0 -10 -4 -18 -10 -18 -5 0 -10 -9 -10 -20 0 -11 -4 -20 -10 -20 -6 0 -10
-27 -10 -60 0 -33 4 -60 10 -60 6 0 10 -13 10 -28 0 -16 8 -34 20 -42 11 -8
20 -20 20 -28 0 -19 25 -42 47 -42 15 0 16 -2 3 -10 -12 -8 -11 -10 8 -10 12
0 22 -4 22 -10 0 -5 9 -10 20 -10 11 0 20 -4 20 -10 0 -6 37 -10 90 -10 53 0
90 4 90 10 0 6 8 10 18 10 10 0 24 9 32 20 8 11 22 20 32 20 11 0 18 7 18 18
0 10 9 24 20 32 11 8 20 22 20 32 0 10 5 18 10 18 6 0 10 40 10 100 0 60 -4
100 -10 100 -5 0 -10 7 -10 15 0 26 -107 125 -135 125 -14 0 -25 5 -25 10 0 6
-30 10 -70 10 -40 0 -70 -4 -70 -10z"/>
<path d="M29140 12950 c0 -5 -15 -10 -32 -10 -25 0 -29 -3 -18 -10 13 -8 12
-10 -3 -10 -22 0 -107 -84 -107 -105 0 -8 -4 -15 -10 -15 -5 0 -10 -13 -10
-30 0 -16 -4 -30 -10 -30 -5 0 -10 -24 -10 -52 0 -38 3 -49 10 -38 7 11 10 7
10 -17 0 -18 5 -33 10 -33 6 0 10 -8 10 -18 0 -10 9 -24 20 -32 11 -8 20 -22
20 -32 0 -11 7 -18 18 -18 10 0 24 -9 32 -20 8 -11 22 -20 32 -20 10 0 18 -4
18 -10 0 -6 37 -10 90 -10 53 0 90 4 90 10 0 6 9 10 20 10 11 0 20 5 20 10 0
6 7 10 15 10 19 0 65 44 65 62 0 8 9 20 20 28 12 8 20 26 20 42 0 15 5 28 10
28 6 0 10 27 10 60 0 33 -4 60 -10 60 -5 0 -10 13 -10 28 0 16 -8 34 -20 42
-11 8 -20 20 -20 28 0 17 -25 42 -42 42 -8 0 -20 9 -28 20 -8 12 -26 20 -42
20 -15 0 -28 5 -28 10 0 6 -30 10 -70 10 -40 0 -70 -4 -70 -10z"/>
</g>
</svg>
